<?xml version="1.0" encoding="iso-8859-1"?>
<!-- Generator: Adobe Illustrator 19.0.0, SVG Export Plug-In . SVG Version: 6.00 Build 0)  -->
<svg version="1.1" id="Capa_1" xmlns="http://www.w3.org/2000/svg" xmlns:xlink="http://www.w3.org/1999/xlink" x="0px" y="0px"
	 viewBox="0 0 512 512" style="enable-background:new 0 0 512 512;" xml:space="preserve">
<path style="fill:#FFC66C;" d="M192.361,87.785v1.443c-6.566-4.315-14.424-6.826-22.868-6.826
	c-23.029,0-41.698,18.669-41.698,41.698c0,10.841,4.137,20.716,10.919,28.132l0.014-0.017l-0.011,0.051
	c-5.027-2.062-10.526-3.21-16.296-3.21l0,0c-23.77,0-43.039,19.269-43.039,43.039v99.708c0,23.77,19.269,43.039,43.039,43.039l0,0
	l5.585,0.169c-8.545,10.686-13.655,24.238-13.655,38.984c0,34.5,27.967,62.467,62.467,62.467c5.053,0,9.959-0.616,14.665-1.748
	l-0.049,0.024l4.885,11.04c3.433,7.759,8.556,14.421,14.816,19.645c11.879-9.93,19.441-24.854,19.441-41.548V87.788
	c0-16.49-7.427-31.24-19.11-41.108C199.786,56.549,192.361,71.296,192.361,87.785z M192.361,89.383l-0.123,0.039l0.123-0.144V89.383
	z"/>
<path style="fill:#FFFFFF;" d="M102.98,305.54c0-10.095,5.758-18.84,14.165-23.148c-3.551-1.819-7.572-2.852-11.835-2.852
	c-14.36,0-26,11.641-26,26s11.64,26,26,26c4.264,0,8.284-1.033,11.835-2.852C108.737,324.38,102.98,315.636,102.98,305.54z"/>
<path style="fill:#4DBAF6;" d="M131.309,305.54c0-10.095-5.758-18.84-14.165-23.148c-8.407,4.307-14.165,13.052-14.165,23.148
	c0,10.095,5.758,18.84,14.165,23.148C125.551,324.38,131.309,315.636,131.309,305.54z"/>
<path style="fill:#FFFFFF;" d="M153.326,131.782c0-9.189,5.166-17.168,12.75-21.201c-3.356-1.785-7.184-2.799-11.25-2.799
	c-13.255,0-24,10.745-24,24c0,13.255,10.745,24,24,24c4.066,0,7.894-1.015,11.25-2.799
	C158.492,148.95,153.326,140.971,153.326,131.782z"/>
<path style="fill:#4DBAF6;" d="M178.826,131.782c0-9.189-5.166-17.168-12.75-21.201c-7.584,4.033-12.75,12.012-12.75,21.201
	c0,9.189,5.166,17.168,12.75,21.201C173.66,148.95,178.826,140.971,178.826,131.782z"/>
<circle style="fill:#FF5D5D;" cx="95.96" cy="212.04" r="20"/>
<circle style="fill:#FFB954;" cx="169.24" cy="391.72" r="20"/>
<path style="fill:#FFC66C;" d="M453.577,335.015l5.585-0.169l0,0c23.77,0,43.039-19.269,43.039-43.039v-99.708
	c0-23.77-19.27-43.039-43.039-43.039l0,0c-5.771,0-11.269,1.148-16.296,3.21l-0.011-0.051l0.014,0.017
	c6.782-7.416,10.919-17.291,10.919-28.132c0-23.029-18.668-41.698-41.698-41.698c-8.444,0-16.301,2.511-22.868,6.826v-1.443
	c0-18.601-9.441-34.996-23.792-44.657c-14.351,9.662-23.792,26.056-23.792,44.657v336.088c0,18.794,9.581,35.346,24.122,45.052
	c8.4-5.593,15.247-13.529,19.503-23.146l4.885-11.04l-0.049-0.024c4.705,1.133,9.612,1.748,14.665,1.748
	c34.499,0,62.467-27.967,62.467-62.467C467.232,359.253,462.123,345.7,453.577,335.015z M389.223,89.386v-0.105l0.123,0.144
	L389.223,89.386z"/>
<path style="fill:#FFFFFF;" d="M403.778,305.54c0-10.205,5.882-19.031,14.438-23.287c-3.483-1.733-7.408-2.713-11.563-2.713
	c-14.359,0-26,11.641-26,26s11.641,26,26,26c4.155,0,8.079-0.98,11.563-2.713C409.66,324.571,403.778,315.745,403.778,305.54z"/>
<path style="fill:#FF5D5D;" d="M432.653,305.54c0-10.205-5.882-19.031-14.438-23.287c-8.556,4.256-14.438,13.083-14.438,23.287
	c0,10.205,5.882,19.031,14.438,23.287C426.771,324.571,432.653,315.745,432.653,305.54z"/>
<path style="fill:#FFFFFF;" d="M354.469,131.782c0-9.422,5.432-17.572,13.333-21.499c-3.214-1.598-6.834-2.501-10.667-2.501
	c-13.255,0-24,10.745-24,24s10.745,24,24,24c3.833,0,7.453-0.903,10.667-2.501C359.901,149.354,354.469,141.204,354.469,131.782z"/>
<path style="fill:#FF5D5D;" d="M381.135,131.782c0-9.422-5.432-17.572-13.333-21.499c-7.901,3.928-13.333,12.077-13.333,21.499
	s5.432,17.572,13.333,21.499C375.703,149.354,381.135,141.204,381.135,131.782z"/>
<g>
	<circle style="fill:#4DBAF6;" cx="416" cy="212.04" r="20"/>
	<circle style="fill:#4DBAF6;" cx="342.72" cy="391.72" r="20"/>
</g>
<path d="M230.375,169.07c-5.522,0-10,4.477-10,10v244.856c0,24.309-19.777,44.085-44.086,44.085
	c-17.435,0-33.259-10.302-40.314-26.247l-0.433-0.979c10.339-4.372,19.612-11.131,27.008-19.841c2.165,0.498,4.416,0.771,6.73,0.771
	c16.542,0,30-13.458,30-30s-13.458-30-30-30s-30,13.458-30,30c0,6.871,2.327,13.205,6.228,18.269
	c-9.835,10.449-23.59,16.519-38.16,16.519c-28.899,0-52.41-23.511-52.41-52.41c0-11.081,3.37-21.548,9.758-30.453
	c7.059-1.608,13.744-4.649,19.601-8.924c5.925,4.287,13.195,6.824,21.051,6.824c19.851,0,36-16.149,36-36s-16.149-36-36-36
	s-36,16.149-36,36c0,4.756,0.936,9.294,2.618,13.454c-5.505,3.889-12.051,5.982-18.966,5.982c-18.196,0-33-14.804-33-33V191.954
	c0-18.196,14.804-33,33-33c15.495,0,28.523,10.738,32.052,25.162C73.91,188.5,66,199.359,66,212.038c0,16.542,13.458,30,30,30
	s30-13.458,30-30c0-13.288-8.687-24.578-20.677-28.509c-2.817-17.558-14.287-32.255-29.885-39.575
	c-4.569-5.628-7.07-12.633-7.07-19.933c0-17.457,14.203-31.659,31.66-31.659c4.531,0,8.951,0.966,13.016,2.802
	c0.749,9.198,4.148,17.872,9.828,25.112c-1.297,3.596-2.008,7.47-2.008,11.507c0,18.748,15.252,34,34,34s34-15.252,34-34
	s-15.252-34-34-34c-7.042,0-13.589,2.152-19.021,5.832c-1.937-3.776-2.968-7.98-2.968-12.335v-3.54
	c0-24.124,19.626-43.75,43.75-43.75s43.75,19.626,43.75,43.75c0,5.523,4.478,10,10,10s10-4.477,10-10
	c0-35.152-28.598-63.75-63.75-63.75c-30.566,0-56.165,21.626-62.328,50.378c-4.605-1.321-9.399-2.006-14.269-2.006
	c-28.485,0-51.66,23.174-51.66,51.659c0,5.135,0.769,10.178,2.228,14.995C22.483,140.277,0,163.536,0,191.954v100.022
	c0,25.321,17.854,46.54,41.631,51.759c-4.363,9.464-6.694,19.841-6.694,30.359c0,39.927,32.483,72.41,72.41,72.41
	c2.902,0,5.781-0.177,8.625-0.518l1.713,3.872c10.256,23.177,33.26,38.153,58.604,38.153c35.337,0,64.085-28.749,64.085-64.085
	V179.07C240.375,173.547,235.897,169.07,230.375,169.07z M169.28,381.716c5.514,0,10,4.486,10,10s-4.486,10-10,10s-10-4.486-10-10
	S163.767,381.716,169.28,381.716z M154.864,117.782c7.72,0,14,6.28,14,14s-6.28,14-14,14s-14-6.28-14-14
	S147.145,117.782,154.864,117.782z M96,222.038c-5.514,0-10-4.486-10-10s4.486-10,10-10s10,4.486,10,10S101.514,222.038,96,222.038z
	 M105.348,289.541c8.822,0,16,7.178,16,16s-7.178,16-16,16s-16-7.178-16-16S96.525,289.541,105.348,289.541z"/>
<path d="M230.37,123.41c-2.63,0-5.2,1.06-7.07,2.93c-1.86,1.86-2.92,4.43-2.92,7.07c0,2.63,1.06,5.21,2.92,7.07
	c1.87,1.86,4.44,2.93,7.07,2.93c2.64,0,5.21-1.07,7.069-2.93c1.87-1.86,2.94-4.44,2.94-7.07s-1.07-5.21-2.94-7.07
	C235.58,124.47,233.01,123.41,230.37,123.41z"/>
<path d="M281.63,338.54c2.63,0,5.2-1.07,7.06-2.93c1.87-1.86,2.931-4.44,2.931-7.07s-1.061-5.21-2.931-7.07
	c-1.859-1.86-4.43-2.93-7.06-2.93c-2.64,0-5.21,1.07-7.08,2.93c-1.86,1.86-2.93,4.44-2.93,7.07s1.069,5.21,2.93,7.07
	C276.42,337.47,278.99,338.54,281.63,338.54z"/>
<path d="M461.403,139.015c1.459-4.816,2.228-9.859,2.228-14.995c0-28.485-23.174-51.659-51.659-51.659
	c-4.87,0-9.664,0.685-14.269,2.006c-6.163-28.752-31.762-50.378-62.328-50.378c-35.152,0-63.75,28.598-63.75,63.75V292.5
	c0,5.523,4.478,10,10,10s10-4.477,10-10V87.739c0-24.124,19.626-43.75,43.75-43.75s43.75,19.626,43.75,43.75v3.54
	c0,4.355-1.031,8.559-2.968,12.335c-5.432-3.68-11.98-5.832-19.021-5.832c-18.748,0-34,15.252-34,34s15.252,34,34,34
	s34-15.252,34-34c0-4.038-0.711-7.911-2.008-11.507c5.679-7.24,9.079-15.914,9.828-25.112c4.065-1.836,8.485-2.802,13.016-2.802
	c17.457,0,31.659,14.202,31.659,31.659c0,7.301-2.501,14.306-7.07,19.933c-15.597,7.321-27.067,22.018-29.884,39.575
	C394.687,187.46,386,198.75,386,212.038c0,16.542,13.458,30,30,30s30-13.458,30-30c0-12.679-7.91-23.538-19.052-27.922
	c3.528-14.424,16.556-25.162,32.052-25.162c18.196,0,33,14.804,33,33v100.022c0,18.196-14.804,33-33,33
	c-6.915,0-13.461-2.093-18.966-5.982c1.683-4.16,2.618-8.698,2.618-13.454c0-19.851-16.149-36-36-36s-36,16.149-36,36
	s16.149,36,36,36c7.856,0,15.126-2.537,21.051-6.824c5.857,4.275,12.542,7.316,19.601,8.924c6.389,8.906,9.758,19.374,9.758,30.453
	c0,28.899-23.511,52.41-52.41,52.41c-14.57,0-28.325-6.07-38.16-16.519c3.9-5.063,6.228-11.398,6.228-18.269
	c0-16.542-13.458-30-30-30s-30,13.458-30,30s13.458,30,30,30c2.314,0,4.565-0.272,6.73-0.771c7.396,8.71,16.67,15.469,27.009,19.841
	l-0.433,0.979c-7.056,15.944-22.88,26.246-40.315,26.246c-24.309,0-44.085-19.777-44.085-44.085V365c0-5.523-4.478-10-10-10
	s-10,4.477-10,10v58.926c0,35.337,28.748,64.085,64.085,64.085c25.345,0,48.349-14.976,58.604-38.153l1.714-3.872
	c2.843,0.341,5.722,0.518,8.624,0.518c39.927,0,72.41-32.483,72.41-72.41c0-10.517-2.331-20.894-6.694-30.358
	C494.146,338.517,512,317.298,512,291.977V191.954C512,163.536,489.516,140.277,461.403,139.015z M357.136,145.782
	c-7.72,0-14-6.28-14-14s6.28-14,14-14s14,6.28,14,14S364.855,145.782,357.136,145.782z M416,222.038c-5.514,0-10-4.486-10-10
	s4.486-10,10-10s10,4.486,10,10S421.514,222.038,416,222.038z M332.72,391.716c0-5.514,4.486-10,10-10s10,4.486,10,10
	s-4.486,10-10,10S332.72,397.23,332.72,391.716z M390.652,305.541c0-8.822,7.178-16,16-16s16,7.178,16,16s-7.178,16-16,16
	S390.652,314.363,390.652,305.541z"/>
<g>
</g>
<g>
</g>
<g>
</g>
<g>
</g>
<g>
</g>
<g>
</g>
<g>
</g>
<g>
</g>
<g>
</g>
<g>
</g>
<g>
</g>
<g>
</g>
<g>
</g>
<g>
</g>
<g>
</g>
</svg>
