<svg xmlns="http://www.w3.org/2000/svg" viewBox="0 0 42.1 60"><defs><style>.cls-1{fill:#fff;}</style></defs><title>PO LOGO 4</title><g id="Layer_2" data-name="Layer 2"><g id="Layer_1-2" data-name="Layer 1"><path class="cls-1" d="M13.14.5A1.71,1.71,0,0,0,12,0h-.18A11.94,11.94,0,0,0,0,11.93V48.07A11.94,11.94,0,0,0,11.84,60H12a1.72,1.72,0,0,0,1.62-1.7V1.7A1.7,1.7,0,0,0,13.14.5ZM3.41,48.07V11.93a8.54,8.54,0,0,1,6.82-8.35V56.42A8.54,8.54,0,0,1,3.41,48.07Z"/><path class="cls-1" d="M30.17,60A11.93,11.93,0,1,1,42.1,48.07,11.94,11.94,0,0,1,30.17,60Zm0-20.45a8.52,8.52,0,1,0,8.52,8.52A8.53,8.53,0,0,0,30.17,39.55Z"/><path class="cls-1" d="M12.27,35.8V32.39a14.49,14.49,0,0,0,0-29V0a17.9,17.9,0,0,1,0,35.8Z"/><rect class="cls-1" x="10.13" y="56.59" width="20.04" height="3.41" rx="1.7" ry="1.7"/></g></g></svg>