<svg xmlns="http://www.w3.org/2000/svg" xmlns:xlink="http://www.w3.org/1999/xlink" version="1.1" fill="rgb(255,255,255)" x="0px" y="0px" viewBox="0 0 144.083 180" enable-background="new 0 0 144.083 144" xml:space="preserve"><path fill="rgb(255,255,255)" d="M117.461,15.731h-90.84c-7.713,0-13.988,6.274-13.988,13.987v84.563c0,7.713,6.275,13.987,13.988,13.987h90.84  c7.713,0,13.988-6.274,13.988-13.987V29.719C131.45,22.006,125.174,15.731,117.461,15.731z M26.622,21.731h90.84  c4.404,0,7.988,3.583,7.988,7.987v14.936H18.633V29.719C18.633,25.314,22.217,21.731,26.622,21.731z M97.124,86.333  c0,13.991-11.342,25.333-25.332,25.333c-13.991,0-25.333-11.342-25.333-25.333S57.8,61,71.792,61  C85.782,61,97.124,72.342,97.124,86.333z"/><rect x="27.797" y="31.051" width="8.734" height="6"/><rect fill="rgb(255,255,255)" x="41.924" y="31.051" width="8.734" height="6"/><rect x="56.051" y="31.051" width="8.735" height="6"/><path fill="rgb(255,255,255)"  d="M59.664,82.464l-4.242,4.242l10.666,10.665c0.563,0.563,1.325,0.879,2.121,0.879s1.559-0.316,2.121-0.879l17.831-17.834  l-4.242-4.242l-15.71,15.713L59.664,82.464z"/></svg>