<svg xmlns="http://www.w3.org/2000/svg" height="596pt" version="1.1" viewBox="1 -29 596.717 596" width="596pt">
<g id="surface1">
<path d="M 477.597656 119.773438 L 79.597656 119.773438 C 57.621094 119.773438 39.800781 137.59375 39.800781 159.570312 L 39.800781 468.023438 L 517.398438 468.023438 L 517.398438 159.574219 C 517.398438 137.59375 499.578125 119.773438 477.597656 119.773438 Z M 477.597656 119.773438 " style=" stroke:none;fill-rule:nonzero;fill:rgb(26.27451%,59.607843%,81.960784%);fill-opacity:1;" />
<path d="M 79.597656 159.574219 L 477.597656 159.574219 L 477.597656 487.921875 L 79.597656 487.921875 Z M 79.597656 159.574219 " style=" stroke:none;fill-rule:nonzero;fill:rgb(52.941176%,80.784314%,85.098039%);fill-opacity:1;" />
<path d="M 477.597656 159.574219 L 278.847656 159.574219 C 278.847656 161.234375 278.597656 162.867188 278.597656 164.546875 C 278.609375 249.71875 347.664062 318.761719 432.835938 318.761719 C 448 318.761719 463.082031 316.523438 477.597656 312.117188 Z M 477.597656 159.574219 " style=" stroke:none;fill-rule:nonzero;fill:rgb(44.313725%,76.862745%,81.960784%);fill-opacity:1;" />
<path d="M 125.816406 487.921875 L 477.597656 487.921875 L 477.597656 159.574219 L 428.824219 159.574219 Z M 125.816406 487.921875 " style=" stroke:none;fill-rule:nonzero;fill:rgb(44.313725%,76.862745%,81.960784%);fill-opacity:1;" />
<path d="M 109.449219 189.421875 L 129.351562 189.421875 L 129.351562 209.324219 L 109.449219 209.324219 Z M 109.449219 189.421875 " style=" stroke:none;fill-rule:nonzero;fill:rgb(36.862745%,70.196078%,81.960784%);fill-opacity:1;" />
<path d="M 149.25 189.421875 L 169.148438 189.421875 L 169.148438 209.324219 L 149.25 209.324219 Z M 149.25 189.421875 " style=" stroke:none;fill-rule:nonzero;fill:rgb(36.862745%,70.196078%,81.960784%);fill-opacity:1;" />
<path d="M 189.050781 189.421875 L 208.949219 189.421875 L 208.949219 209.324219 L 189.050781 209.324219 Z M 189.050781 189.421875 " style=" stroke:none;fill-rule:nonzero;fill:rgb(36.862745%,70.196078%,81.960784%);fill-opacity:1;" />
<path d="M 119.402344 418.273438 L 169.148438 418.273438 L 169.148438 438.171875 L 119.402344 438.171875 Z M 119.402344 418.273438 " style=" stroke:none;fill-rule:nonzero;fill:rgb(36.862745%,70.196078%,81.960784%);fill-opacity:1;" />
<path d="M 208.949219 418.273438 L 258.699219 418.273438 L 258.699219 438.171875 L 208.949219 438.171875 Z M 208.949219 418.273438 " style=" stroke:none;fill-rule:nonzero;fill:rgb(36.862745%,70.196078%,81.960784%);fill-opacity:1;" />
<path d="M 298.5 418.273438 L 348.25 418.273438 L 348.25 438.171875 L 298.5 438.171875 Z M 298.5 418.273438 " style=" stroke:none;fill-rule:nonzero;fill:rgb(36.862745%,70.196078%,81.960784%);fill-opacity:1;" />
<path d="M 388.050781 418.273438 L 437.796875 418.273438 L 437.796875 438.171875 L 388.050781 438.171875 Z M 388.050781 418.273438 " style=" stroke:none;fill-rule:nonzero;fill:rgb(36.862745%,70.196078%,81.960784%);fill-opacity:1;" />
<path d="M 119.402344 239.171875 L 437.800781 239.171875 L 437.800781 298.871094 L 119.402344 298.871094 Z M 119.402344 239.171875 " style=" stroke:none;fill-rule:nonzero;fill:rgb(36.862745%,70.196078%,81.960784%);fill-opacity:1;" />
<path d="M 208.949219 338.671875 L 258.699219 338.671875 L 258.699219 388.421875 L 208.949219 388.421875 Z M 208.949219 338.671875 " style=" stroke:none;fill-rule:nonzero;fill:rgb(36.862745%,70.196078%,81.960784%);fill-opacity:1;" />
<path d="M 119.402344 338.671875 L 169.148438 338.671875 L 169.148438 388.421875 L 119.402344 388.421875 Z M 119.402344 338.671875 " style=" stroke:none;fill-rule:nonzero;fill:rgb(36.862745%,70.196078%,81.960784%);fill-opacity:1;" />
<path d="M 388.050781 338.671875 L 437.796875 338.671875 L 437.796875 388.421875 L 388.050781 388.421875 Z M 388.050781 338.671875 " style=" stroke:none;fill-rule:nonzero;fill:rgb(36.862745%,70.196078%,81.960784%);fill-opacity:1;" />
<path d="M 298.5 338.671875 L 348.25 338.671875 L 348.25 388.421875 L 298.5 388.421875 Z M 298.5 338.671875 " style=" stroke:none;fill-rule:nonzero;fill:rgb(36.862745%,70.196078%,81.960784%);fill-opacity:1;" />
<path d="M 587.050781 149.621094 C 587.050781 226.554688 524.683594 288.921875 447.75 288.921875 C 370.816406 288.921875 308.449219 226.554688 308.449219 149.621094 C 308.449219 72.6875 370.816406 10.324219 447.75 10.324219 C 524.683594 10.324219 587.050781 72.6875 587.050781 149.621094 Z M 587.050781 149.621094 " style=" stroke:none;fill-rule:nonzero;fill:rgb(89.019608%,29.411765%,52.941176%);fill-opacity:1;" />
<path d="M 447.75 79.972656 C 452.15625 80.023438 456.554688 80.488281 460.882812 81.363281 L 446.179688 90.617188 L 456.785156 107.464844 L 490.367188 86.320312 C 495.011719 83.394531 496.40625 77.246094 493.480469 72.597656 C 493.359375 72.410156 493.230469 72.21875 493.101562 72.039062 L 468.644531 38.460938 L 452.554688 50.171875 L 460.515625 61.035156 C 411.800781 53.78125 366.425781 87.394531 359.171875 136.109375 C 358.507812 140.585938 358.179688 145.105469 358.199219 149.621094 C 358.15625 168.019531 363.820312 185.988281 374.417969 201.03125 L 390.703125 189.601562 C 368.625 158.097656 376.257812 114.667969 407.757812 92.585938 C 419.480469 84.378906 433.441406 79.972656 447.75 79.972656 Z M 447.75 79.972656 " style=" stroke:none;fill-rule:nonzero;fill:rgb(74.901961%,23.921569%,45.882353%);fill-opacity:1;" />
<path d="M 520.664062 97.054688 L 504.375 108.488281 C 526.453125 139.992188 518.824219 183.421875 487.320312 205.5 C 475.601562 213.710938 461.640625 218.117188 447.332031 218.117188 C 442.925781 218.070312 438.527344 217.601562 434.207031 216.726562 L 448.902344 207.460938 L 438.308594 190.625 L 404.726562 211.769531 C 400.078125 214.695312 398.675781 220.835938 401.601562 225.492188 C 401.722656 225.679688 401.851562 225.871094 401.980469 226.050781 L 426.4375 259.628906 L 442.527344 247.910156 L 434.566406 237.042969 C 483.519531 244.046875 528.894531 210.039062 535.898438 161.085938 C 539.121094 138.578125 533.660156 115.695312 520.625 97.058594 Z M 520.664062 97.054688 " style=" stroke:none;fill-rule:nonzero;fill:rgb(74.901961%,23.921569%,45.882353%);fill-opacity:1;" />
<path d="M 517.398438 527.722656 L 39.800781 527.722656 C 23.3125 527.722656 9.949219 514.359375 9.949219 497.871094 L 9.949219 468.023438 L 217.726562 468.023438 C 224.542969 468.023438 230.78125 471.871094 233.824219 477.972656 C 236.867188 484.070312 243.109375 487.921875 249.921875 487.921875 L 307.273438 487.921875 C 314.089844 487.921875 320.328125 484.070312 323.375 477.972656 C 326.417969 471.871094 332.65625 468.023438 339.472656 468.023438 L 547.25 468.023438 L 547.25 497.871094 C 547.25 514.359375 533.886719 527.722656 517.398438 527.722656 Z M 517.398438 527.722656 " style=" stroke:none;fill-rule:nonzero;fill:rgb(85.490196%,86.666667%,87.45098%);fill-opacity:1;" />
<path d="M 497.5 468.023438 L 497.5 497.871094 C 497.5 514.359375 484.136719 527.722656 467.648438 527.722656 L 517.402344 527.722656 C 533.886719 527.722656 547.25 514.359375 547.25 497.871094 L 547.25 468.023438 Z M 497.5 468.023438 " style=" stroke:none;fill-rule:nonzero;fill:rgb(81.568627%,83.137255%,83.921569%);fill-opacity:1;" />
<path d="M 39.800781 537.671875 L 517.398438 537.671875 C 539.378906 537.671875 557.199219 519.851562 557.199219 497.871094 L 557.199219 468.023438 C 557.199219 462.53125 552.742188 458.074219 547.25 458.074219 L 527.347656 458.074219 L 527.347656 308.824219 L 507.449219 308.824219 L 507.449219 458.070312 L 487.550781 458.070312 L 487.550781 318.773438 L 467.648438 318.773438 L 467.648438 458.070312 L 339.472656 458.070312 C 328.875 458.042969 319.1875 464.03125 314.480469 473.523438 C 313.125 476.261719 310.328125 477.980469 307.273438 477.972656 L 249.921875 477.972656 C 246.867188 477.980469 244.074219 476.261719 242.71875 473.523438 C 238.011719 464.03125 228.320312 458.042969 217.726562 458.070312 L 89.550781 458.070312 L 89.550781 169.523438 L 278.601562 169.523438 L 278.601562 149.621094 L 79.597656 149.621094 C 74.105469 149.621094 69.648438 154.078125 69.648438 159.570312 L 69.648438 458.070312 L 49.75 458.070312 L 49.75 159.574219 C 49.75 143.085938 63.113281 129.722656 79.597656 129.722656 L 278.597656 129.722656 L 278.597656 109.824219 L 79.597656 109.824219 C 52.136719 109.851562 29.878906 132.109375 29.851562 159.570312 L 29.851562 458.070312 L 9.949219 458.070312 C 4.457031 458.070312 0 462.53125 0 468.023438 L 0 497.871094 C 0 519.851562 17.820312 537.671875 39.800781 537.671875 Z M 19.902344 477.972656 L 217.726562 477.972656 C 220.78125 477.960938 223.578125 479.683594 224.929688 482.421875 C 229.636719 491.914062 239.328125 497.902344 249.925781 497.871094 L 307.277344 497.871094 C 317.875 497.902344 327.5625 491.914062 332.269531 482.421875 C 333.625 479.683594 336.417969 477.960938 339.472656 477.972656 L 537.300781 477.972656 L 537.300781 497.871094 C 537.300781 508.867188 528.394531 517.773438 517.398438 517.773438 L 39.800781 517.773438 C 28.804688 517.773438 19.898438 508.867188 19.898438 497.871094 L 19.898438 477.972656 Z M 19.902344 477.972656 " style=" stroke:none;fill-rule:nonzero;fill:rgb(0%,0%,0%);fill-opacity:1;" />
<path d="M 109.449219 189.421875 L 129.351562 189.421875 L 129.351562 209.324219 L 109.449219 209.324219 Z M 109.449219 189.421875 " style=" stroke:none;fill-rule:nonzero;fill:rgb(0%,0%,0%);fill-opacity:1;" />
<path d="M 149.25 189.421875 L 169.148438 189.421875 L 169.148438 209.324219 L 149.25 209.324219 Z M 149.25 189.421875 " style=" stroke:none;fill-rule:nonzero;fill:rgb(0%,0%,0%);fill-opacity:1;" />
<path d="M 189.050781 189.421875 L 208.949219 189.421875 L 208.949219 209.324219 L 189.050781 209.324219 Z M 189.050781 189.421875 " style=" stroke:none;fill-rule:nonzero;fill:rgb(0%,0%,0%);fill-opacity:1;" />
<path d="M 298.5 249.121094 L 298.5 229.222656 L 119.402344 229.222656 C 113.90625 229.222656 109.449219 233.679688 109.449219 239.171875 L 109.449219 298.871094 C 109.449219 304.363281 113.90625 308.820312 119.402344 308.820312 L 358.199219 308.820312 L 358.199219 288.921875 L 129.351562 288.921875 L 129.351562 249.121094 Z M 298.5 249.121094 " style=" stroke:none;fill-rule:nonzero;fill:rgb(0%,0%,0%);fill-opacity:1;" />
<path d="M 109.449219 418.273438 L 179.097656 418.273438 L 179.097656 438.171875 L 109.449219 438.171875 Z M 109.449219 418.273438 " style=" stroke:none;fill-rule:nonzero;fill:rgb(0%,0%,0%);fill-opacity:1;" />
<path d="M 199 418.273438 L 268.648438 418.273438 L 268.648438 438.171875 L 199 438.171875 Z M 199 418.273438 " style=" stroke:none;fill-rule:nonzero;fill:rgb(0%,0%,0%);fill-opacity:1;" />
<path d="M 288.550781 418.273438 L 358.199219 418.273438 L 358.199219 438.171875 L 288.550781 438.171875 Z M 288.550781 418.273438 " style=" stroke:none;fill-rule:nonzero;fill:rgb(0%,0%,0%);fill-opacity:1;" />
<path d="M 378.097656 418.273438 L 447.75 418.273438 L 447.75 438.171875 L 378.097656 438.171875 Z M 378.097656 418.273438 " style=" stroke:none;fill-rule:nonzero;fill:rgb(0%,0%,0%);fill-opacity:1;" />
<path d="M 268.648438 338.671875 C 268.648438 333.179688 264.191406 328.722656 258.699219 328.722656 L 208.949219 328.722656 C 203.457031 328.722656 199 333.179688 199 338.671875 L 199 388.421875 C 199 393.914062 203.457031 398.371094 208.949219 398.371094 L 258.699219 398.371094 C 264.191406 398.371094 268.648438 393.914062 268.648438 388.421875 Z M 248.75 378.472656 L 218.898438 378.472656 L 218.898438 348.621094 L 248.75 348.621094 Z M 248.75 378.472656 " style=" stroke:none;fill-rule:nonzero;fill:rgb(0%,0%,0%);fill-opacity:1;" />
<path d="M 179.097656 338.671875 C 179.097656 333.179688 174.640625 328.722656 169.148438 328.722656 L 119.402344 328.722656 C 113.90625 328.722656 109.449219 333.179688 109.449219 338.671875 L 109.449219 388.421875 C 109.449219 393.914062 113.90625 398.371094 119.402344 398.371094 L 169.148438 398.371094 C 174.640625 398.371094 179.097656 393.914062 179.097656 388.421875 Z M 159.199219 378.472656 L 129.351562 378.472656 L 129.351562 348.621094 L 159.199219 348.621094 Z M 159.199219 378.472656 " style=" stroke:none;fill-rule:nonzero;fill:rgb(0%,0%,0%);fill-opacity:1;" />
<path d="M 437.800781 398.371094 C 443.292969 398.371094 447.75 393.914062 447.75 388.421875 L 447.75 338.671875 C 447.75 333.179688 443.292969 328.722656 437.800781 328.722656 L 388.050781 328.722656 C 382.558594 328.722656 378.101562 333.183594 378.101562 338.671875 L 378.101562 388.421875 C 378.101562 393.914062 382.558594 398.371094 388.050781 398.371094 Z M 398 348.621094 L 427.851562 348.621094 L 427.851562 378.472656 L 398 378.472656 Z M 398 348.621094 " style=" stroke:none;fill-rule:nonzero;fill:rgb(0%,0%,0%);fill-opacity:1;" />
<path d="M 358.199219 338.671875 C 358.199219 333.179688 353.742188 328.722656 348.25 328.722656 L 298.5 328.722656 C 293.007812 328.722656 288.550781 333.179688 288.550781 338.671875 L 288.550781 388.421875 C 288.550781 393.914062 293.007812 398.371094 298.5 398.371094 L 348.25 398.371094 C 353.742188 398.371094 358.199219 393.914062 358.199219 388.421875 Z M 338.300781 378.472656 L 308.449219 378.472656 L 308.449219 348.621094 L 338.300781 348.621094 Z M 338.300781 378.472656 " style=" stroke:none;fill-rule:nonzero;fill:rgb(0%,0%,0%);fill-opacity:1;" />
<path d="M 447.75 0.371094 C 365.324219 0.371094 298.5 67.195312 298.5 149.621094 C 298.5 232.046875 365.324219 298.871094 447.75 298.871094 C 530.175781 298.871094 597 232.046875 597 149.621094 C 596.910156 67.234375 530.136719 0.460938 447.75 0.371094 Z M 447.75 278.972656 C 376.308594 278.972656 318.398438 221.0625 318.398438 149.621094 C 318.398438 78.179688 376.308594 20.273438 447.75 20.273438 C 519.191406 20.273438 577.097656 78.179688 577.097656 149.621094 C 577.019531 221.023438 519.152344 278.890625 447.75 278.972656 Z M 447.75 278.972656 " style=" stroke:none;fill-rule:nonzero;fill:rgb(0%,0%,0%);fill-opacity:1;" />
<path d="M 447.75 79.972656 C 452.15625 80.023438 456.554688 80.488281 460.882812 81.363281 L 446.179688 90.617188 L 456.785156 107.464844 L 490.367188 86.320312 C 495.011719 83.394531 496.40625 77.246094 493.480469 72.597656 C 493.359375 72.410156 493.230469 72.21875 493.101562 72.039062 L 468.644531 38.460938 L 452.554688 50.171875 L 460.515625 61.035156 C 411.800781 53.78125 366.425781 87.394531 359.171875 136.109375 C 358.507812 140.585938 358.179688 145.105469 358.199219 149.621094 C 358.15625 168.019531 363.820312 185.988281 374.417969 201.03125 L 390.703125 189.601562 C 368.625 158.097656 376.257812 114.667969 407.757812 92.585938 C 419.480469 84.378906 433.441406 79.972656 447.75 79.972656 Z M 447.75 79.972656 " style=" stroke:none;fill-rule:nonzero;fill:rgb(0%,0%,0%);fill-opacity:1;" />
<path d="M 504.375 108.488281 C 526.453125 139.992188 518.824219 183.421875 487.320312 205.5 C 475.601562 213.710938 461.640625 218.117188 447.332031 218.117188 C 442.925781 218.070312 438.527344 217.601562 434.207031 216.726562 L 448.902344 207.460938 L 438.308594 190.625 L 404.726562 211.769531 C 400.078125 214.695312 398.675781 220.835938 401.601562 225.492188 C 401.722656 225.679688 401.851562 225.871094 401.980469 226.050781 L 426.4375 259.628906 L 442.527344 247.910156 L 434.566406 237.042969 C 483.519531 244.046875 528.894531 210.039062 535.898438 161.085938 C 539.121094 138.578125 533.660156 115.695312 520.625 97.058594 Z M 504.375 108.488281 " style=" stroke:none;fill-rule:nonzero;fill:rgb(0%,0%,0%);fill-opacity:1;" />
</g>
</svg>